<svg xmlns="http://www.w3.org/2000/svg" viewBox="0 0 880 380" width="880" height="380" role="img" aria-label="Channel Clear spectrum: networks on channels 1 and 6, recommending channel 11">
  <defs>
    <linearGradient id="bg" x1="0" y1="0" x2="0" y2="1">
      <stop offset="0" stop-color="#1a2433"/>
      <stop offset="1" stop-color="#0a0e14"/>
    </linearGradient>
    <filter id="glow" x="-20%" y="-20%" width="140%" height="140%">
      <feGaussianBlur stdDeviation="2.5" result="b"/>
      <feMerge><feMergeNode in="b"/><feMergeNode in="SourceGraphic"/></feMerge>
    </filter>
  </defs>
  <rect width="880" height="380" rx="10" fill="url(#bg)"/>
  <line x1="0" y1="350.0" x2="880" y2="350.0" stroke="rgba(61,219,255,0.16)" stroke-width="1"/>
  <line x1="0" y1="271.0" x2="880" y2="271.0" stroke="rgba(61,219,255,0.08)" stroke-width="1"/>
  <line x1="0" y1="192.0" x2="880" y2="192.0" stroke="rgba(61,219,255,0.08)" stroke-width="1"/>
  <line x1="0" y1="113.0" x2="880" y2="113.0" stroke="rgba(61,219,255,0.08)" stroke-width="1"/>
  <line x1="0" y1="34.0" x2="880" y2="34.0" stroke="rgba(61,219,255,0.08)" stroke-width="1"/>
  <line x1="116.6" y1="34" x2="116.6" y2="350" stroke="rgba(61,219,255,0.08)" stroke-width="1"/><text x="116.6" y="366" fill="#7c8ba1" font-family="ui-monospace, monospace" font-size="11" text-anchor="middle">1</text>
  <line x1="169.6" y1="34" x2="169.6" y2="350" stroke="rgba(61,219,255,0.08)" stroke-width="1"/>
  <line x1="222.7" y1="34" x2="222.7" y2="350" stroke="rgba(61,219,255,0.08)" stroke-width="1"/><text x="222.7" y="366" fill="#7c8ba1" font-family="ui-monospace, monospace" font-size="11" text-anchor="middle">3</text>
  <line x1="275.7" y1="34" x2="275.7" y2="350" stroke="rgba(61,219,255,0.08)" stroke-width="1"/>
  <line x1="328.7" y1="34" x2="328.7" y2="350" stroke="rgba(61,219,255,0.08)" stroke-width="1"/><text x="328.7" y="366" fill="#7c8ba1" font-family="ui-monospace, monospace" font-size="11" text-anchor="middle">5</text>
  <line x1="381.7" y1="34" x2="381.7" y2="350" stroke="rgba(61,219,255,0.08)" stroke-width="1"/>
  <line x1="434.7" y1="34" x2="434.7" y2="350" stroke="rgba(61,219,255,0.08)" stroke-width="1"/><text x="434.7" y="366" fill="#7c8ba1" font-family="ui-monospace, monospace" font-size="11" text-anchor="middle">7</text>
  <line x1="487.7" y1="34" x2="487.7" y2="350" stroke="rgba(61,219,255,0.08)" stroke-width="1"/>
  <line x1="540.7" y1="34" x2="540.7" y2="350" stroke="rgba(61,219,255,0.08)" stroke-width="1"/><text x="540.7" y="366" fill="#7c8ba1" font-family="ui-monospace, monospace" font-size="11" text-anchor="middle">9</text>
  <line x1="593.7" y1="34" x2="593.7" y2="350" stroke="rgba(61,219,255,0.08)" stroke-width="1"/>
  <line x1="646.7" y1="34" x2="646.7" y2="350" stroke="rgba(61,219,255,0.08)" stroke-width="1"/><text x="646.7" y="366" fill="#7c8ba1" font-family="ui-monospace, monospace" font-size="11" text-anchor="middle">11</text>
  <line x1="699.8" y1="34" x2="699.8" y2="350" stroke="rgba(61,219,255,0.08)" stroke-width="1"/>
  <line x1="752.8" y1="34" x2="752.8" y2="350" stroke="rgba(61,219,255,0.08)" stroke-width="1"/><text x="752.8" y="366" fill="#7c8ba1" font-family="ui-monospace, monospace" font-size="11" text-anchor="middle">13</text>
  <path d="M 0.0 350 L 0.0 34.0 L 10.6 34.0 L 21.2 34.0 L 31.8 34.0 L 42.4 34.0 L 53.0 34.0 L 63.6 34.0 L 74.2 34.0 L 84.8 34.0 L 95.4 34.0 L 106.0 34.0 L 116.6 34.0 L 127.2 34.0 L 137.8 34.0 L 148.4 34.0 L 159.0 34.0 L 169.6 34.0 L 180.2 34.0 L 190.8 34.0 L 201.4 34.0 L 212.0 34.0 L 222.7 34.0 L 233.3 34.0 L 243.9 40.4 L 254.5 59.1 L 265.1 88.5 L 275.7 126.4 L 286.3 169.5 L 296.9 214.5 L 307.5 257.6 L 318.1 295.5 L 328.7 324.9 L 339.3 343.6 L 349.9 350.0 L 360.5 350.0 L 371.1 350.0 L 381.7 350.0 L 392.3 350.0 L 402.9 350.0 L 413.5 350.0 L 424.1 350.0 L 434.7 350.0 L 445.3 350.0 L 455.9 350.0 L 466.5 350.0 L 477.1 350.0 L 487.7 350.0 L 498.3 350.0 L 508.9 350.0 L 519.5 350.0 L 530.1 350.0 L 540.7 350.0 L 551.3 350.0 L 561.9 350.0 L 572.5 350.0 L 583.1 350.0 L 593.7 350.0 L 604.3 350.0 L 614.9 350.0 L 625.5 350.0 L 636.1 350.0 L 646.7 350.0 L 657.3 350.0 L 668.0 350.0 L 678.6 350.0 L 689.2 350.0 L 699.8 350.0 L 710.4 350.0 L 721.0 350.0 L 731.6 350.0 L 742.2 350.0 L 752.8 350.0 L 763.4 350.0 L 774.0 350.0 L 784.6 350.0 L 795.2 350.0 L 805.8 350.0 L 816.4 350.0 L 827.0 350.0 L 837.6 350.0 L 848.2 350.0 L 858.8 350.0 L 869.4 350.0 L 880.0 350.0 L 880.0 350 Z" fill="#3ddbff" fill-opacity="0.28"/>
  <path d="M 0.0 350 L 0.0 34.0 L 10.6 34.0 L 21.2 34.0 L 31.8 34.0 L 42.4 34.0 L 53.0 34.0 L 63.6 34.0 L 74.2 34.0 L 84.8 34.0 L 95.4 34.0 L 106.0 34.0 L 116.6 34.0 L 127.2 34.0 L 137.8 34.0 L 148.4 34.0 L 159.0 34.0 L 169.6 34.0 L 180.2 34.0 L 190.8 34.0 L 201.4 34.0 L 212.0 34.0 L 222.7 34.0 L 233.3 34.0 L 243.9 40.4 L 254.5 59.1 L 265.1 88.5 L 275.7 126.4 L 286.3 169.5 L 296.9 214.5 L 307.5 257.6 L 318.1 295.5 L 328.7 324.9 L 339.3 343.6 L 349.9 350.0 L 360.5 350.0 L 371.1 350.0 L 381.7 350.0 L 392.3 350.0 L 402.9 350.0 L 413.5 350.0 L 424.1 350.0 L 434.7 350.0 L 445.3 350.0 L 455.9 350.0 L 466.5 350.0 L 477.1 350.0 L 487.7 350.0 L 498.3 350.0 L 508.9 350.0 L 519.5 350.0 L 530.1 350.0 L 540.7 350.0 L 551.3 350.0 L 561.9 350.0 L 572.5 350.0 L 583.1 350.0 L 593.7 350.0 L 604.3 350.0 L 614.9 350.0 L 625.5 350.0 L 636.1 350.0 L 646.7 350.0 L 657.3 350.0 L 668.0 350.0 L 678.6 350.0 L 689.2 350.0 L 699.8 350.0 L 710.4 350.0 L 721.0 350.0 L 731.6 350.0 L 742.2 350.0 L 752.8 350.0 L 763.4 350.0 L 774.0 350.0 L 784.6 350.0 L 795.2 350.0 L 805.8 350.0 L 816.4 350.0 L 827.0 350.0 L 837.6 350.0 L 848.2 350.0 L 858.8 350.0 L 869.4 350.0 L 880.0 350.0 L 880.0 350 Z" fill="none" stroke="#3ddbff" stroke-width="2" stroke-linejoin="round" filter="url(#glow)"/>
  <path d="M 0.0 350 L 0.0 350.0 L 10.6 350.0 L 21.2 350.0 L 31.8 350.0 L 42.4 350.0 L 53.0 350.0 L 63.6 350.0 L 74.2 350.0 L 84.8 350.0 L 95.4 350.0 L 106.0 350.0 L 116.6 350.0 L 127.2 350.0 L 137.8 350.0 L 148.4 350.0 L 159.0 343.6 L 169.6 324.9 L 180.2 295.5 L 190.8 257.6 L 201.4 214.5 L 212.0 169.5 L 222.7 126.4 L 233.3 88.5 L 243.9 59.1 L 254.5 40.4 L 265.1 34.0 L 275.7 34.0 L 286.3 34.0 L 296.9 34.0 L 307.5 34.0 L 318.1 34.0 L 328.7 34.0 L 339.3 34.0 L 349.9 34.0 L 360.5 34.0 L 371.1 34.0 L 381.7 34.0 L 392.3 34.0 L 402.9 34.0 L 413.5 34.0 L 424.1 34.0 L 434.7 34.0 L 445.3 34.0 L 455.9 34.0 L 466.5 34.0 L 477.1 34.0 L 487.7 34.0 L 498.3 34.0 L 508.9 40.4 L 519.5 59.1 L 530.1 88.5 L 540.7 126.4 L 551.3 169.5 L 561.9 214.5 L 572.5 257.6 L 583.1 295.5 L 593.7 324.9 L 604.3 343.6 L 614.9 350.0 L 625.5 350.0 L 636.1 350.0 L 646.7 350.0 L 657.3 350.0 L 668.0 350.0 L 678.6 350.0 L 689.2 350.0 L 699.8 350.0 L 710.4 350.0 L 721.0 350.0 L 731.6 350.0 L 742.2 350.0 L 752.8 350.0 L 763.4 350.0 L 774.0 350.0 L 784.6 350.0 L 795.2 350.0 L 805.8 350.0 L 816.4 350.0 L 827.0 350.0 L 837.6 350.0 L 848.2 350.0 L 858.8 350.0 L 869.4 350.0 L 880.0 350.0 L 880.0 350 Z" fill="#5eead4" fill-opacity="0.28"/>
  <path d="M 0.0 350 L 0.0 350.0 L 10.6 350.0 L 21.2 350.0 L 31.8 350.0 L 42.4 350.0 L 53.0 350.0 L 63.6 350.0 L 74.2 350.0 L 84.8 350.0 L 95.4 350.0 L 106.0 350.0 L 116.6 350.0 L 127.2 350.0 L 137.8 350.0 L 148.4 350.0 L 159.0 343.6 L 169.6 324.9 L 180.2 295.5 L 190.8 257.6 L 201.4 214.5 L 212.0 169.5 L 222.7 126.4 L 233.3 88.5 L 243.9 59.1 L 254.5 40.4 L 265.1 34.0 L 275.7 34.0 L 286.3 34.0 L 296.9 34.0 L 307.5 34.0 L 318.1 34.0 L 328.7 34.0 L 339.3 34.0 L 349.9 34.0 L 360.5 34.0 L 371.1 34.0 L 381.7 34.0 L 392.3 34.0 L 402.9 34.0 L 413.5 34.0 L 424.1 34.0 L 434.7 34.0 L 445.3 34.0 L 455.9 34.0 L 466.5 34.0 L 477.1 34.0 L 487.7 34.0 L 498.3 34.0 L 508.9 40.4 L 519.5 59.1 L 530.1 88.5 L 540.7 126.4 L 551.3 169.5 L 561.9 214.5 L 572.5 257.6 L 583.1 295.5 L 593.7 324.9 L 604.3 343.6 L 614.9 350.0 L 625.5 350.0 L 636.1 350.0 L 646.7 350.0 L 657.3 350.0 L 668.0 350.0 L 678.6 350.0 L 689.2 350.0 L 699.8 350.0 L 710.4 350.0 L 721.0 350.0 L 731.6 350.0 L 742.2 350.0 L 752.8 350.0 L 763.4 350.0 L 774.0 350.0 L 784.6 350.0 L 795.2 350.0 L 805.8 350.0 L 816.4 350.0 L 827.0 350.0 L 837.6 350.0 L 848.2 350.0 L 858.8 350.0 L 869.4 350.0 L 880.0 350.0 L 880.0 350 Z" fill="none" stroke="#5eead4" stroke-width="2" stroke-linejoin="round" filter="url(#glow)"/>
  <line x1="646.7" y1="48" x2="646.7" y2="350" stroke="#ffb454" stroke-width="2" stroke-dasharray="6 4"/>
  <path d="M 646.7 50 L 640.7 38 L 652.7 38 Z" fill="#ffb454"/>
  <rect x="620.7" y="12" width="52" height="18" rx="5" fill="#ffb454"/>
  <text x="646.7" y="25" fill="#0a0e14" font-family="ui-monospace, monospace" font-weight="700" font-size="12" text-anchor="middle">CH 11</text>
  <text x="14" y="22" fill="#e6edf5" font-family="ui-monospace, monospace" font-weight="700" font-size="13">2.4 GHz spectrum</text>
</svg>